<?xml version="1.0" standalone="no"?>
<!DOCTYPE svg PUBLIC "-//W3C//DTD SVG 20010904//EN"
 "http://www.w3.org/TR/2001/REC-SVG-20010904/DTD/svg10.dtd">
<svg version="1.0" xmlns="http://www.w3.org/2000/svg"
 width="2000.000000pt" height="2000.000000pt" viewBox="0 0 2000.000000 2000.000000"
 preserveAspectRatio="xMidYMid meet">

<g transform="translate(0.000000,2000.000000) scale(0.100000,-0.100000)"
fill="#000000" stroke="none">
<path d="M0 10000 l0 -10000 10000 0 10000 0 0 10000 0 10000 -10000 0 -10000
0 0 -10000z m10054 8601 c3 -4 25 -11 48 -14 46 -7 98 -27 98 -39 0 -5 9 -8
20 -8 11 0 37 -9 57 -20 21 -11 43 -20 50 -20 6 0 13 -4 15 -8 2 -5 32 -23 68
-41 66 -32 101 -52 110 -61 9 -9 44 -30 68 -40 12 -5 22 -14 22 -20 0 -5 6
-10 13 -10 8 0 24 -11 37 -25 13 -14 27 -25 32 -25 11 0 83 -56 114 -87 12
-13 26 -23 31 -23 5 0 18 -10 29 -21 18 -21 112 -69 133 -69 6 0 11 -4 11 -10
0 -5 11 -10 25 -10 14 0 25 -4 25 -9 0 -4 48 -11 107 -15 59 -4 110 -11 113
-15 3 -5 31 -11 62 -15 32 -4 60 -12 63 -17 4 -5 17 -9 31 -9 13 0 24 -4 24
-9 0 -5 18 -11 40 -15 22 -3 40 -11 40 -16 0 -6 7 -10 15 -10 21 0 95 -33 95
-42 0 -4 18 -11 40 -14 22 -4 40 -10 40 -14 0 -4 12 -11 27 -15 15 -3 30 -10
33 -13 8 -10 43 -32 63 -38 9 -4 17 -10 17 -15 0 -5 4 -9 10 -9 17 0 90 -34
90 -42 0 -8 82 -48 98 -48 6 0 12 -7 16 -15 3 -8 12 -15 19 -15 8 0 20 -7 27
-16 8 -8 27 -22 44 -30 62 -30 87 -46 93 -60 3 -8 11 -14 19 -14 8 0 22 -9 31
-20 10 -11 21 -20 26 -20 5 0 22 -10 37 -22 15 -13 38 -30 50 -38 13 -8 38
-27 55 -42 18 -16 36 -28 40 -28 5 0 23 -16 42 -35 19 -19 38 -35 43 -35 6 0
27 -18 47 -40 21 -22 42 -40 48 -40 14 0 255 -242 255 -256 0 -6 11 -19 24
-30 14 -10 27 -28 31 -41 3 -13 10 -23 15 -23 6 0 10 -7 10 -15 0 -8 5 -15 11
-15 6 0 9 -7 5 -15 -3 -8 -1 -15 4 -15 6 0 10 -6 10 -14 0 -8 6 -16 13 -18 9
-4 12 -38 12 -128 0 -90 -3 -124 -12 -127 -7 -3 -13 -11 -13 -19 0 -8 -10 -14
-25 -14 -14 0 -25 -4 -25 -10 0 -13 -25 -13 -48 -1 -9 6 -33 13 -54 16 -20 3
-39 12 -42 20 -3 8 -12 15 -20 15 -8 0 -21 8 -28 19 -7 10 -23 21 -35 25 -13
4 -23 12 -23 17 0 5 -6 9 -13 9 -8 0 -24 11 -37 25 -13 14 -28 25 -34 25 -5 0
-27 18 -47 40 -21 22 -41 40 -46 40 -5 0 -27 18 -48 40 -21 22 -44 40 -51 40
-6 0 -34 25 -62 55 -28 30 -56 55 -61 55 -6 0 -28 18 -50 40 -22 22 -43 40
-48 40 -5 0 -22 14 -38 30 -16 17 -33 30 -38 30 -5 0 -19 10 -31 23 -12 13
-28 26 -36 30 -18 8 -53 30 -60 37 -12 13 -86 67 -100 73 -17 8 -52 29 -60 37
-10 10 -45 31 -62 36 -10 4 -18 10 -18 14 0 4 -11 11 -25 14 -14 4 -25 10 -25
15 0 5 -13 12 -30 16 -16 4 -30 10 -30 13 0 8 -74 42 -90 42 -6 0 -10 4 -10 9
0 5 -13 12 -30 16 -16 4 -30 10 -30 13 0 9 -75 42 -94 42 -8 0 -17 4 -20 9 -4
5 -24 12 -46 16 -22 4 -42 11 -46 16 -3 5 -16 9 -29 9 -13 0 -25 5 -27 12 -3
8 -37 12 -105 12 -93 1 -103 -1 -126 -23 -14 -13 -23 -29 -20 -37 3 -8 0 -14
-6 -14 -6 0 -11 -7 -11 -15 0 -8 -4 -15 -10 -15 -5 0 -12 -17 -15 -37 -3 -21
-10 -45 -15 -54 -5 -9 -12 -56 -16 -103 -4 -48 -11 -89 -15 -92 -5 -3 -9 -36
-9 -75 0 -38 -3 -69 -7 -69 -5 0 -9 -44 -10 -97 -3 -149 -14 -283 -22 -283 -4
0 -11 -46 -15 -102 -3 -57 -11 -104 -16 -106 -6 -2 -10 -17 -10 -32 0 -16 -4
-31 -10 -35 -5 -3 -7 -12 -4 -19 3 -8 1 -17 -5 -21 -6 -3 -11 -17 -11 -31 0
-13 -4 -24 -9 -24 -5 0 -11 -8 -15 -17 -3 -10 -11 -27 -18 -37 -19 -28 -172
-181 -189 -189 -21 -10 -51 -30 -67 -44 -7 -7 -20 -13 -28 -13 -8 0 -14 -3
-14 -8 0 -8 -43 -28 -82 -38 -16 -3 -28 -10 -28 -14 0 -5 -25 -12 -55 -15 -30
-4 -55 -11 -55 -16 0 -5 -15 -9 -33 -9 -18 0 -38 -5 -45 -12 -17 -17 -408 -16
-424 0 -7 7 -29 12 -50 12 -21 0 -38 4 -38 9 0 5 -20 12 -45 15 -24 4 -47 11
-50 15 -2 5 -21 12 -40 15 -19 4 -35 10 -35 14 0 8 -74 42 -90 42 -6 0 -10 4
-10 9 0 5 -8 11 -17 15 -28 9 -55 28 -95 69 -21 20 -41 37 -45 37 -13 1 -53
38 -53 49 0 5 -11 21 -25 35 -13 13 -27 36 -31 50 -3 14 -10 26 -15 26 -5 0
-9 7 -9 15 0 8 -4 15 -9 15 -5 0 -13 25 -16 55 -4 30 -11 55 -16 55 -5 0 -9
22 -9 48 0 26 -5 53 -11 59 -7 7 -10 35 -7 72 2 34 1 61 -4 61 -4 0 -8 42 -8
93 0 52 -5 98 -11 104 -6 6 -9 52 -7 122 2 61 0 111 -4 111 -5 0 -8 42 -8 94
0 52 -4 97 -8 100 -5 3 -12 43 -15 88 -4 46 -11 84 -17 86 -5 2 -10 15 -10 28
0 13 -5 24 -11 24 -6 0 -9 6 -7 12 6 17 -14 36 -46 44 -14 3 -26 10 -26 15 0
5 -16 9 -35 9 -19 0 -35 -4 -35 -9 0 -4 -30 -11 -66 -15 -36 -4 -73 -10 -82
-15 -9 -4 -31 -16 -49 -25 -17 -9 -41 -16 -52 -16 -12 0 -21 -4 -21 -10 0 -5
-4 -10 -10 -10 -16 0 -90 -34 -90 -42 0 -3 -13 -9 -30 -13 -16 -4 -30 -11 -30
-16 0 -5 -4 -9 -10 -9 -16 0 -90 -34 -90 -42 0 -3 -13 -9 -30 -13 -16 -4 -30
-11 -30 -16 0 -5 -11 -11 -25 -15 -14 -3 -25 -9 -25 -13 0 -3 -18 -15 -40 -25
-22 -11 -40 -22 -40 -26 0 -4 -8 -10 -17 -14 -20 -6 -41 -19 -90 -53 -17 -13
-36 -23 -41 -23 -5 0 -17 -9 -27 -20 -10 -11 -22 -20 -28 -20 -5 0 -17 -8 -26
-17 -18 -20 -45 -38 -76 -52 -11 -5 -27 -18 -35 -30 -8 -12 -19 -21 -25 -21
-5 0 -24 -14 -42 -30 -18 -17 -36 -30 -41 -30 -4 0 -21 -13 -37 -30 -16 -16
-32 -30 -37 -30 -14 0 -258 -251 -258 -266 0 -8 -5 -14 -10 -14 -9 0 -32 -41
-34 -62 -1 -3 -4 -10 -8 -14 -5 -4 -8 -22 -8 -41 0 -18 -4 -33 -10 -33 -5 0
-10 -10 -10 -22 0 -27 -27 -58 -50 -58 -26 0 -107 -85 -115 -120 -4 -16 -11
-30 -16 -30 -5 0 -9 -7 -9 -15 0 -8 -5 -15 -11 -15 -5 0 -7 -5 -4 -11 4 -6 -2
-17 -13 -24 -11 -8 -22 -31 -26 -55 -3 -22 -11 -40 -16 -40 -6 0 -10 -7 -10
-15 0 -8 -4 -15 -9 -15 -4 0 -6 -11 -3 -25 2 -15 0 -25 -7 -25 -6 0 -11 -7
-11 -15 0 -8 -4 -15 -9 -15 -5 0 -11 -18 -15 -40 -3 -22 -10 -40 -15 -40 -5 0
-12 -20 -15 -45 -4 -25 -11 -45 -17 -45 -5 0 -9 -11 -9 -25 0 -14 -5 -25 -11
-25 -6 0 -8 -8 -4 -19 3 -11 1 -22 -5 -26 -5 -3 -10 -17 -10 -31 0 -13 -4 -24
-9 -24 -5 0 -13 -25 -16 -55 -4 -30 -11 -55 -16 -55 -5 0 -9 -11 -9 -25 0 -14
-4 -25 -8 -25 -5 0 -7 -13 -4 -30 3 -18 0 -30 -7 -30 -6 0 -11 -13 -11 -29 0
-17 -4 -32 -9 -35 -5 -3 -12 -33 -16 -66 -4 -33 -11 -60 -16 -60 -5 0 -9 -18
-9 -40 0 -22 -4 -40 -9 -40 -5 0 -6 -20 -4 -44 3 -26 1 -46 -6 -50 -6 -4 -11
-35 -11 -72 0 -35 -4 -64 -9 -64 -4 0 -11 -62 -15 -137 -4 -76 -11 -139 -17
-141 -5 -2 -9 -26 -9 -53 0 -27 -4 -49 -8 -49 -5 0 -7 -13 -4 -30 3 -18 0 -30
-7 -30 -6 0 -11 -11 -11 -25 0 -14 -4 -25 -9 -25 -5 0 -11 -8 -15 -17 -15 -45
-71 -107 -106 -118 -14 -4 -27 -11 -30 -14 -6 -8 -75 -41 -85 -41 -13 0 -75
-71 -75 -85 0 -7 -5 -15 -12 -17 -7 -3 -14 -31 -16 -69 -4 -64 -4 -65 32 -97
20 -18 47 -32 61 -32 13 0 25 -5 27 -10 2 -6 65 -13 146 -17 78 -3 142 -10
142 -15 0 -4 103 -8 229 -8 143 0 232 -4 236 -10 9 -14 5751 -14 5760 0 4 6
93 10 236 10 126 0 229 4 229 8 0 5 61 12 136 15 75 3 141 10 147 15 7 5 26
12 42 16 17 4 42 19 58 34 23 22 27 34 27 79 0 32 -4 53 -11 53 -6 0 -9 7 -5
15 3 8 1 15 -4 15 -6 0 -10 6 -10 13 0 13 -64 87 -75 87 -10 0 -79 33 -85 41
-3 3 -16 10 -29 14 -30 9 -81 54 -81 71 0 7 -9 19 -21 27 -11 8 -19 21 -18 28
3 16 -11 52 -23 60 -4 3 -11 40 -14 82 -4 42 -11 77 -15 77 -5 0 -9 25 -9 55
0 33 -4 55 -11 55 -7 0 -9 24 -7 70 2 39 0 70 -4 70 -5 0 -8 33 -8 74 0 50 -4
76 -12 78 -18 6 -18 772 0 789 6 7 12 26 12 41 0 15 5 28 11 28 6 0 9 6 7 12
-7 21 38 49 66 42 15 -3 26 -10 26 -15 0 -5 6 -9 13 -9 16 0 97 -82 97 -98 0
-7 5 -12 10 -12 6 0 10 -7 10 -15 0 -8 4 -15 10 -15 5 0 12 -16 16 -35 3 -19
10 -35 15 -35 5 0 9 -8 9 -17 0 -10 7 -31 15 -47 8 -15 15 -39 15 -52 0 -13 4
-24 9 -24 5 0 13 -25 16 -55 4 -30 11 -55 15 -55 4 0 11 -36 15 -80 4 -44 11
-80 16 -80 5 0 9 -25 9 -55 0 -30 4 -55 9 -55 5 0 12 -40 15 -90 4 -49 11 -90
16 -90 4 0 11 -25 15 -55 3 -30 11 -55 16 -55 5 0 9 -13 9 -29 0 -17 5 -33 10
-36 6 -4 8 -11 5 -16 -4 -5 -1 -9 4 -9 6 0 11 -11 11 -25 0 -14 4 -25 10 -25
5 0 12 -16 16 -35 3 -19 10 -35 15 -35 5 0 9 -6 9 -14 0 -7 25 -37 55 -65 30
-29 55 -59 55 -67 0 -8 7 -17 15 -20 8 -4 15 -12 15 -20 0 -8 5 -14 10 -14 6
0 10 -9 10 -20 0 -11 7 -23 15 -26 8 -4 15 -12 15 -20 0 -8 4 -14 9 -14 5 0
11 -18 15 -40 3 -22 11 -40 16 -40 6 0 10 -9 10 -20 0 -11 5 -20 11 -20 6 0 9
-9 6 -20 -3 -11 -1 -20 4 -20 5 0 9 -11 9 -25 0 -14 4 -25 9 -25 5 0 12 -22
16 -50 4 -27 11 -50 16 -50 5 0 9 -13 9 -29 0 -17 5 -33 10 -36 6 -3 10 -42
10 -85 0 -43 -4 -82 -10 -85 -5 -3 -10 -19 -10 -36 0 -16 -4 -29 -10 -29 -5 0
-12 -16 -16 -35 -3 -19 -10 -35 -15 -35 -5 0 -9 -7 -9 -15 0 -8 -4 -15 -10
-15 -5 0 -7 -7 -4 -15 4 -8 1 -15 -5 -15 -6 0 -11 -7 -11 -15 0 -8 -4 -15 -9
-15 -5 0 -12 -13 -16 -30 -4 -16 -16 -36 -27 -44 -11 -8 -17 -19 -13 -25 3 -6
1 -11 -4 -11 -6 0 -11 -9 -11 -20 0 -11 -4 -20 -9 -20 -5 0 -12 -12 -15 -27
-10 -39 -30 -83 -38 -83 -3 0 -4 -8 -1 -19 3 -10 0 -22 -6 -25 -6 -4 -11 -16
-11 -27 0 -10 -4 -19 -9 -19 -5 0 -12 -34 -16 -75 -4 -41 -11 -75 -16 -75 -5
0 -9 -25 -9 -55 0 -30 -3 -55 -7 -55 -5 0 -7 -68 -5 -151 2 -97 -1 -156 -7
-162 -7 -7 -11 -69 -11 -159 0 -81 -4 -148 -9 -148 -4 0 -11 -39 -15 -87 -3
-49 -11 -89 -16 -91 -6 -2 -10 -10 -10 -19 0 -16 -30 -85 -40 -93 -4 -3 -9
-12 -13 -20 -20 -45 -92 -120 -114 -120 -7 0 -13 -4 -13 -10 0 -5 -17 -17 -37
-26 -21 -10 -42 -24 -46 -31 -4 -7 -19 -13 -32 -13 -14 0 -25 -4 -25 -10 0 -5
-5 -10 -11 -10 -40 0 -129 -66 -129 -95 0 -7 -7 -15 -15 -19 -8 -3 -15 -15
-15 -26 0 -11 -4 -20 -10 -20 -5 0 -10 -7 -10 -15 0 -8 -4 -15 -10 -15 -5 0
-7 -7 -4 -15 4 -8 1 -15 -5 -15 -6 0 -11 -7 -11 -15 0 -8 -4 -15 -10 -15 -5 0
-12 -16 -16 -35 -3 -19 -10 -35 -15 -35 -5 0 -9 -9 -9 -19 0 -11 -5 -23 -10
-26 -6 -4 -8 -10 -5 -15 3 -5 1 -11 -5 -15 -5 -3 -10 -15 -10 -26 0 -10 -4
-19 -9 -19 -5 0 -12 -18 -16 -40 -4 -22 -11 -40 -16 -40 -5 0 -9 -9 -9 -20 0
-11 -4 -20 -9 -20 -5 0 -7 -9 -4 -20 3 -11 0 -20 -6 -20 -6 0 -11 -11 -11 -25
0 -14 -4 -25 -9 -25 -5 0 -12 -22 -16 -50 -4 -27 -11 -50 -16 -50 -5 0 -9 -9
-9 -19 0 -11 -4 -22 -9 -25 -5 -3 -7 -15 -4 -26 3 -11 0 -20 -6 -20 -6 0 -11
-11 -11 -25 0 -14 -4 -25 -9 -25 -5 0 -12 -22 -16 -50 -4 -27 -11 -50 -16 -50
-5 0 -9 -8 -9 -17 0 -10 -7 -31 -15 -47 -8 -15 -15 -35 -15 -42 0 -8 -5 -14
-11 -14 -6 0 -8 -7 -5 -15 5 -14 -9 -52 -25 -65 -3 -3 -9 -22 -13 -42 -4 -21
-11 -38 -16 -38 -6 0 -10 -11 -10 -25 0 -14 -5 -25 -11 -25 -6 0 -9 -7 -5 -15
3 -8 2 -15 -2 -15 -8 0 -42 -73 -42 -90 0 -6 -4 -10 -10 -10 -5 0 -10 -7 -10
-15 0 -8 -4 -15 -10 -15 -5 0 -12 -11 -16 -25 -3 -14 -10 -25 -15 -25 -5 0 -9
-7 -9 -15 0 -8 -4 -15 -9 -15 -5 0 -13 -10 -17 -22 -4 -12 -17 -31 -30 -41
-13 -10 -24 -24 -24 -31 0 -7 -11 -23 -25 -36 -13 -12 -22 -26 -20 -30 3 -5
-11 -20 -30 -36 -19 -15 -35 -33 -35 -40 0 -7 -22 -34 -50 -60 -27 -25 -48
-50 -47 -54 1 -4 -42 -51 -95 -105 -54 -53 -98 -100 -98 -104 0 -5 -49 -58
-110 -118 -60 -61 -110 -115 -110 -120 0 -5 -25 -33 -55 -63 -30 -30 -55 -58
-55 -63 0 -5 -16 -23 -35 -41 -19 -18 -32 -36 -29 -39 3 -3 -10 -20 -30 -37
-20 -18 -36 -38 -36 -46 0 -8 -4 -14 -10 -14 -5 0 -12 -11 -16 -24 -3 -14 -12
-27 -20 -30 -8 -3 -14 -15 -14 -26 0 -11 -4 -20 -10 -20 -5 0 -10 -6 -10 -14
0 -8 -7 -16 -15 -20 -8 -3 -15 -17 -15 -31 0 -14 -4 -25 -10 -25 -5 0 -13 -18
-16 -40 -4 -22 -10 -40 -15 -40 -5 0 -9 -16 -9 -35 0 -19 -4 -35 -8 -35 -11 0
6 -133 18 -140 4 -3 11 -22 15 -42 5 -24 14 -39 27 -44 11 -3 17 -12 14 -19
-3 -8 11 -27 30 -44 18 -17 34 -34 34 -39 0 -13 36 -52 47 -52 6 0 18 -9 28
-20 10 -11 22 -20 28 -20 5 0 21 -9 36 -19 15 -11 40 -23 57 -27 16 -4 34 -10
39 -14 6 -4 47 -10 92 -13 45 -4 90 -10 100 -15 10 -5 28 -14 40 -20 13 -7 28
-12 35 -12 7 0 25 -6 40 -14 15 -8 41 -17 58 -21 17 -4 36 -15 43 -26 6 -10
16 -19 22 -19 5 0 24 -7 40 -16 33 -17 144 -22 154 -6 3 5 17 13 31 17 14 4
34 15 45 25 52 45 94 55 238 55 88 -1 141 -5 145 -12 4 -6 32 -14 62 -18 30
-4 62 -11 72 -16 10 -5 27 -13 38 -19 10 -5 37 -13 60 -16 22 -4 40 -10 40
-14 0 -4 17 -10 39 -14 21 -3 51 -13 67 -21 16 -8 35 -15 42 -15 7 0 21 -5 32
-10 11 -6 29 -14 40 -20 10 -5 37 -13 60 -16 22 -4 40 -10 40 -15 0 -4 16 -11
35 -15 19 -3 38 -10 41 -15 3 -5 16 -9 30 -9 13 0 24 -4 24 -9 0 -5 18 -11 40
-15 22 -3 40 -10 40 -15 0 -5 20 -12 45 -15 25 -4 45 -10 45 -14 0 -8 44 -28
83 -38 15 -3 30 -10 33 -15 3 -5 12 -9 21 -9 8 0 30 -7 49 -15 19 -8 49 -22
68 -30 19 -8 41 -15 50 -15 9 0 16 -4 16 -10 0 -5 17 -12 38 -16 20 -4 39 -10
42 -13 12 -14 52 -31 90 -37 22 -4 40 -10 40 -14 0 -4 18 -10 40 -14 22 -3 40
-11 40 -16 0 -6 11 -10 25 -10 14 0 25 -4 25 -9 0 -5 20 -12 45 -15 24 -4 47
-11 50 -16 3 -5 26 -12 50 -16 25 -3 45 -10 45 -15 0 -5 11 -9 25 -9 14 0 25
-4 25 -9 0 -5 20 -12 45 -15 24 -4 47 -11 50 -16 3 -5 26 -12 50 -16 25 -3 45
-10 45 -15 0 -5 11 -9 25 -9 14 0 25 -4 25 -9 0 -6 20 -13 45 -17 25 -3 45
-10 45 -14 0 -5 23 -11 50 -15 28 -4 50 -11 50 -15 0 -5 18 -11 40 -15 22 -4
42 -11 46 -16 3 -5 16 -9 30 -9 13 0 24 -4 24 -10 0 -5 18 -13 40 -16 22 -4
40 -10 40 -14 0 -4 18 -10 40 -14 23 -3 50 -11 60 -16 11 -6 29 -14 40 -20 10
-5 37 -13 60 -16 22 -4 40 -10 40 -14 0 -4 18 -10 40 -14 23 -3 50 -11 60 -16
11 -6 29 -15 40 -20 11 -6 25 -10 32 -10 7 0 26 -7 41 -15 15 -8 43 -17 63
-21 19 -3 37 -10 40 -15 3 -5 16 -9 30 -9 13 0 24 -4 24 -10 0 -5 18 -13 40
-16 22 -4 40 -10 40 -14 0 -5 14 -12 32 -15 18 -4 39 -11 48 -15 40 -21 90
-40 103 -40 9 0 18 -4 21 -9 3 -5 18 -12 33 -15 39 -10 83 -30 83 -38 0 -3 14
-9 31 -13 17 -4 42 -13 57 -21 15 -8 32 -14 39 -14 6 0 13 -4 15 -8 4 -10 130
-72 145 -72 6 0 13 -4 15 -8 4 -10 130 -72 146 -72 7 0 12 -4 12 -9 0 -5 8
-11 18 -15 18 -6 53 -27 62 -37 3 -3 12 -8 20 -12 22 -10 50 -28 91 -59 20
-16 41 -28 46 -28 5 0 20 -11 33 -25 13 -14 27 -25 32 -25 5 0 19 -11 32 -25
13 -14 28 -25 33 -25 5 0 22 -13 38 -30 16 -16 33 -30 38 -30 5 0 42 -34 83
-75 41 -41 78 -75 83 -75 11 0 161 -148 161 -160 0 -5 25 -34 55 -65 30 -30
55 -59 55 -63 0 -5 14 -21 30 -37 17 -16 30 -34 30 -39 0 -6 9 -17 20 -24 12
-7 18 -17 15 -22 -3 -5 3 -15 15 -22 11 -7 20 -21 20 -30 0 -9 6 -21 13 -25
13 -7 29 -38 31 -56 1 -5 9 -14 18 -21 9 -7 20 -24 23 -39 4 -15 11 -27 16
-27 5 0 9 -9 9 -20 0 -11 4 -20 10 -20 5 0 7 -7 4 -15 -4 -8 -1 -15 5 -15 6 0
11 -7 11 -15 0 -8 4 -15 9 -15 5 0 11 -18 15 -40 3 -22 11 -40 16 -40 6 0 10
-11 10 -25 0 -14 4 -25 10 -25 5 0 7 -7 4 -15 -4 -8 -1 -15 5 -15 6 0 11 -11
11 -25 0 -14 4 -25 9 -25 6 0 13 -20 17 -45 3 -25 10 -45 15 -45 5 0 9 -15 9
-34 0 -19 5 -38 11 -41 6 -4 8 -13 5 -21 -3 -8 -1 -14 4 -14 6 0 10 -16 10
-35 0 -19 4 -35 9 -35 4 0 12 -31 15 -70 4 -38 11 -70 16 -70 4 0 11 -36 15
-80 4 -44 11 -80 16 -80 5 0 9 -18 9 -40 0 -22 4 -40 9 -40 5 0 12 -43 16 -95
4 -52 11 -95 15 -95 4 0 11 -52 15 -115 4 -63 11 -115 16 -115 5 0 9 -27 9
-59 0 -33 5 -63 11 -66 6 -4 9 -29 8 -56 -2 -27 0 -52 4 -55 4 -4 7 -38 7 -76
0 -37 4 -68 9 -68 5 0 12 -61 16 -135 4 -74 11 -135 16 -135 5 0 9 -36 9 -80
0 -51 4 -80 11 -80 7 0 9 -24 7 -70 -2 -39 0 -70 5 -70 4 0 7 -34 7 -75 0 -41
4 -75 9 -75 5 0 12 -63 16 -140 4 -77 11 -140 16 -140 5 0 9 -40 9 -90 0 -57
4 -90 11 -90 7 0 9 -29 7 -85 -2 -60 1 -86 9 -89 19 -8 18 -635 -1 -642 -8 -3
-12 -13 -9 -25 3 -10 0 -19 -6 -19 -6 0 -11 -9 -11 -20 0 -11 -4 -20 -9 -20
-5 0 -11 -10 -15 -23 -3 -13 -60 -77 -126 -142 -66 -65 -120 -123 -120 -128 0
-5 -16 -24 -35 -43 -19 -18 -35 -38 -35 -43 0 -5 -6 -14 -14 -20 -8 -7 -18
-26 -21 -42 -4 -16 -11 -29 -16 -29 -5 0 -9 -9 -9 -19 0 -10 -7 -22 -16 -25
-9 -3 -164 -6 -345 -6 -213 0 -329 -4 -329 -10 0 -7 -445 -9 -1317 -8 l-1318
2 1075 7 c1263 9 2212 23 2228 33 7 4 12 14 12 22 0 45 79 150 239 317 158
165 184 217 195 397 9 137 -12 473 -54 865 -6 55 -13 118 -15 140 -2 22 -9 81
-14 130 -6 50 -18 153 -26 230 -8 77 -20 183 -26 235 -6 52 -12 109 -14 125
-7 79 -64 523 -80 625 -29 191 -75 450 -94 525 -6 22 -17 69 -25 105 -8 36
-22 90 -31 120 -9 30 -20 69 -25 85 -15 56 -63 190 -87 245 -144 331 -337 585
-653 863 -247 216 -436 342 -730 484 -178 86 -185 89 -255 118 -22 10 -49 21
-60 26 -11 5 -45 18 -75 29 -30 11 -64 24 -75 29 -11 5 -40 16 -65 26 -25 9
-53 21 -62 26 -10 5 -23 9 -29 9 -6 0 -25 6 -42 14 -18 8 -54 22 -82 31 -27
10 -64 24 -82 31 -17 8 -36 14 -42 14 -6 0 -19 4 -29 10 -9 5 -93 35 -187 65
-93 31 -177 60 -185 64 -9 5 -31 12 -50 16 -19 4 -39 11 -45 15 -5 4 -26 11
-45 15 -19 4 -39 11 -45 15 -5 3 -37 14 -70 24 -33 9 -67 21 -75 25 -9 5 -31
12 -50 16 -19 4 -39 10 -45 14 -5 4 -57 22 -115 41 -58 18 -114 36 -125 41
-11 4 -42 15 -70 24 -27 10 -59 21 -70 25 -11 5 -63 23 -115 40 -104 35 -117
39 -173 64 -21 9 -42 16 -47 16 -6 0 -33 11 -62 25 -28 14 -56 25 -60 25 -5 0
-28 8 -51 19 -56 25 -201 81 -312 121 -49 18 -103 38 -120 45 -16 7 -66 25
-110 40 -44 15 -89 30 -100 35 -40 17 -191 70 -245 86 -30 8 -64 20 -75 25
-66 30 -226 62 -310 62 -97 0 -122 -8 -235 -75 -49 -29 -63 -32 -130 -32 -71
0 -80 2 -160 46 -125 69 -222 101 -340 113 -36 4 -74 10 -85 14 -119 46 -224
132 -295 242 -161 249 -41 507 495 1069 284 298 422 460 523 610 60 91 147
263 192 380 17 47 36 94 41 105 4 11 22 63 40 115 59 179 140 415 149 435 4
11 22 56 40 100 32 81 37 93 86 200 50 112 140 235 170 235 7 0 54 21 105 47
164 81 244 183 288 363 31 128 40 231 45 496 3 132 10 270 16 305 29 160 46
224 84 323 6 16 32 70 58 120 55 106 137 270 152 305 6 13 11 63 10 110 -1 74
-7 103 -44 211 -77 223 -148 357 -239 448 -53 53 -78 96 -106 182 -10 30 -21
64 -26 75 -7 18 -18 58 -25 95 -2 8 -8 35 -14 60 -6 25 -17 88 -25 140 -49
317 -92 473 -171 617 -37 66 -124 153 -155 153 -31 0 -60 -78 -77 -205 -16
-118 -7 -491 17 -705 6 -47 15 -132 20 -190 6 -58 15 -127 20 -155 52 -272 85
-333 215 -396 78 -38 121 -72 153 -121 23 -34 27 -51 27 -109 -1 -58 -5 -74
-23 -93 -47 -50 -162 -73 -428 -87 -533 -27 -6080 -28 -6634 0 -260 13 -383
37 -428 85 -14 15 -23 42 -27 83 -6 54 -4 66 22 113 31 58 53 76 151 124 147
74 199 179 228 466 32 321 67 525 120 710 9 30 21 72 26 92 18 74 99 308 149
434 92 230 195 404 239 404 36 0 61 33 76 98 20 84 42 124 117 212 157 183
550 479 883 665 64 36 243 126 281 142 224 92 354 114 422 73 43 -26 72 -93
88 -205 6 -46 25 -246 29 -320 16 -265 41 -522 56 -585 43 -182 91 -268 198
-357 223 -185 486 -261 812 -233 68 6 128 15 134 21 5 5 18 9 30 9 29 0 128
36 199 72 90 45 144 85 226 168 100 100 144 189 170 345 14 89 30 214 36 285
35 460 40 495 81 640 33 116 65 153 138 162 45 6 195 -10 210 -22 6 -4 24 -11
40 -15 17 -5 32 -9 35 -10 15 -5 49 -19 77 -31 17 -8 34 -14 37 -14 24 0 310
-155 417 -226 215 -142 308 -213 529 -404 329 -283 449 -364 532 -358 39 3 45
7 62 41 19 39 26 131 14 177 -49 191 -368 510 -808 806 -275 186 -581 351
-775 419 -27 9 -59 21 -70 25 -71 30 -199 57 -301 65 -120 9 -209 56 -409 216
-93 74 -243 168 -375 235 -102 52 -163 76 -316 124 -17 6 -61 10 -99 10 -57 0
-73 -4 -92 -22 -13 -12 -23 -32 -23 -44 0 -45 -60 -81 -152 -91 -35 -3 -92
-18 -128 -33 -73 -29 -218 -120 -277 -173 -85 -77 -292 -197 -338 -197 -8 0
-16 -4 -19 -9 -4 -5 -41 -12 -84 -16 -42 -3 -95 -11 -117 -17 -96 -26 -141
-40 -157 -49 -10 -5 -23 -9 -28 -9 -6 0 -30 -8 -53 -19 -23 -10 -57 -24 -76
-32 -43 -18 -378 -183 -411 -203 -14 -8 -72 -43 -130 -77 -327 -193 -530 -365
-777 -659 -362 -430 -626 -939 -728 -1400 -9 -41 -21 -91 -25 -110 -11 -44
-20 -124 -25 -215 -2 -38 -7 -126 -10 -195 -10 -196 -38 -276 -122 -355 -179
-166 -193 -183 -237 -278 -63 -135 -80 -215 -80 -382 0 -179 10 -224 97 -425
111 -259 122 -324 114 -680 -9 -387 5 -493 92 -669 45 -93 172 -230 269 -291
188 -119 234 -155 290 -227 37 -47 96 -170 111 -229 63 -255 97 -366 166 -539
130 -328 316 -650 548 -948 54 -71 192 -224 306 -340 258 -265 333 -353 377
-442 58 -119 63 -154 59 -395 -2 -118 -8 -231 -13 -250 -20 -78 -58 -125 -119
-148 -15 -5 -37 -14 -48 -18 -11 -4 -22 -8 -25 -9 -3 -1 -29 -5 -58 -10 -29
-4 -55 -12 -58 -16 -3 -5 -14 -9 -24 -9 -19 0 -94 -22 -135 -40 -11 -4 -49
-18 -85 -31 -36 -13 -85 -34 -110 -46 -25 -13 -52 -23 -60 -23 -9 0 -21 -5
-27 -11 -7 -7 -45 -12 -90 -12 -75 0 -81 2 -178 53 l-100 54 -95 0 c-60 0
-121 -6 -165 -18 -72 -18 -214 -62 -250 -76 -11 -4 -60 -22 -110 -40 -49 -17
-97 -35 -105 -39 -9 -5 -31 -12 -50 -16 -19 -4 -41 -11 -50 -16 -8 -4 -78 -31
-155 -60 -77 -28 -159 -60 -182 -70 -23 -11 -47 -19 -53 -19 -5 0 -18 -4 -28
-9 -9 -6 -48 -24 -87 -42 -38 -17 -100 -46 -136 -64 -37 -18 -82 -36 -100 -40
-19 -4 -38 -11 -44 -15 -9 -7 -59 -15 -242 -39 -69 -9 -103 -22 -243 -95 -36
-19 -103 -49 -150 -67 -47 -17 -94 -35 -105 -40 -19 -7 -157 -52 -260 -85 -27
-9 -59 -19 -70 -24 -11 -4 -42 -15 -70 -25 -27 -9 -59 -20 -70 -25 -11 -4 -78
-29 -150 -56 -71 -26 -170 -69 -220 -94 -99 -51 -191 -80 -250 -80 -21 0 -52
-4 -69 -10 -17 -5 -55 -16 -85 -25 -153 -46 -540 -257 -796 -434 -330 -228
-603 -512 -787 -816 -60 -99 -145 -269 -178 -355 -11 -30 -25 -64 -30 -75 -13
-28 -84 -247 -105 -325 -9 -36 -21 -76 -25 -90 -12 -38 -48 -207 -56 -265 -39
-268 -20 -441 55 -507 31 -27 39 -30 88 -26 75 7 99 31 163 168 4 9 11 31 15
50 4 19 11 41 15 50 4 8 15 49 24 90 9 41 21 91 26 110 5 19 19 80 30 135 12
55 30 125 40 155 10 30 28 89 41 130 30 103 116 315 174 430 172 344 342 549
645 776 198 148 349 235 481 279 30 9 63 21 74 25 42 15 126 11 153 -6 46 -30
48 -35 68 -149 26 -149 31 -1220 14 -2875 -6 -525 -13 -1131 -16 -1346 l-7
-392 -186 -6 c-102 -3 -280 -10 -396 -16 -333 -16 -775 -13 -892 6 -54 9 -102
20 -107 25 -6 5 -16 9 -23 9 -8 0 -38 15 -67 34 -81 52 -120 126 -156 296 -8
35 -14 205 -16 465 -6 560 -23 710 -89 760 -17 14 -38 25 -46 25 -18 0 -79
-37 -97 -59 -38 -47 -74 -149 -111 -316 -17 -76 -33 -251 -41 -445 -8 -209 -3
-613 10 -655 4 -16 11 -50 15 -75 3 -24 20 -74 37 -110 26 -55 58 -92 207
-237 96 -95 169 -173 161 -173 -7 0 -52 36 -99 81 -47 45 -114 108 -148 140
-35 33 -63 63 -63 67 0 5 -11 19 -25 32 -14 13 -25 29 -25 37 0 7 -4 13 -9 13
-5 0 -12 13 -16 30 -4 16 -11 30 -16 30 -5 0 -9 11 -9 25 0 14 -5 25 -11 25
-7 0 -10 15 -7 40 2 27 0 40 -9 40 -10 0 -12 100 -13 465 0 363 3 465 13 465
9 0 11 19 9 70 -2 46 0 70 7 70 6 0 11 21 11 50 0 28 4 50 9 50 4 0 12 32 15
70 4 39 11 70 17 70 5 0 9 11 9 25 0 14 4 25 10 25 5 0 7 7 4 15 -4 8 -1 15 5
15 6 0 11 7 11 15 0 8 5 15 10 15 6 0 10 7 10 15 0 19 47 65 66 65 8 0 14 5
14 10 0 6 21 10 48 10 77 -1 112 -45 120 -152 3 -38 9 -68 13 -68 5 0 9 -114
9 -253 0 -161 4 -257 10 -263 7 -7 10 -92 8 -242 -2 -128 0 -232 5 -232 4 0 7
-22 7 -50 0 -27 4 -50 9 -50 4 0 11 -16 14 -36 7 -43 29 -94 40 -94 5 0 6 -4
2 -9 -5 -9 78 -101 91 -101 7 0 70 -27 97 -41 10 -6 57 -13 103 -16 47 -3 87
-10 90 -15 8 -12 564 -10 564 2 0 6 56 10 148 10 81 0 258 3 395 7 l247 6 0
663 c0 413 4 664 10 666 14 5 18 3157 4 3166 -6 4 -14 47 -17 96 -4 49 -10 92
-15 95 -5 3 -12 16 -16 28 -4 11 -19 24 -33 28 -32 8 -173 -4 -173 -15 0 -4
-18 -10 -40 -14 -22 -3 -40 -11 -40 -16 0 -6 -11 -10 -25 -10 -14 0 -25 -4
-25 -9 0 -5 -14 -12 -30 -16 -17 -4 -30 -11 -30 -16 0 -5 -11 -11 -25 -15 -14
-3 -25 -9 -25 -13 0 -3 -14 -12 -30 -19 -17 -8 -36 -19 -43 -25 -18 -17 -48
-35 -75 -47 -12 -5 -22 -14 -22 -20 0 -5 -6 -10 -13 -10 -8 0 -24 -11 -37 -25
-13 -14 -29 -25 -36 -25 -7 0 -21 -11 -32 -25 -11 -14 -25 -25 -30 -25 -6 0
-24 -13 -40 -30 -17 -16 -34 -30 -39 -30 -11 0 -253 -243 -253 -254 0 -5 -11
-19 -25 -32 -14 -13 -25 -30 -25 -39 0 -8 -5 -15 -10 -15 -6 0 -15 -10 -20
-22 -12 -28 -31 -57 -47 -76 -7 -7 -13 -20 -13 -28 0 -8 -4 -14 -10 -14 -5 0
-10 -7 -10 -15 0 -8 -4 -15 -10 -15 -5 0 -12 -11 -16 -25 -3 -14 -10 -25 -14
-25 -5 0 -11 -14 -15 -30 -4 -17 -11 -30 -16 -30 -5 0 -9 -4 -9 -10 0 -16 -34
-90 -42 -90 -3 0 -9 -13 -13 -30 -4 -17 -11 -30 -16 -30 -5 0 -12 -18 -15 -40
-4 -22 -10 -40 -15 -40 -5 0 -9 -7 -9 -15 0 -8 -5 -15 -11 -15 -6 0 -9 -6 -6
-14 6 -15 -13 -66 -25 -66 -3 0 -9 -22 -13 -50 -4 -28 -11 -50 -16 -50 -5 0
-9 -11 -9 -25 0 -14 -4 -25 -9 -25 -5 0 -7 -9 -4 -20 3 -11 0 -20 -6 -20 -6 0
-11 -16 -11 -35 0 -19 -4 -35 -9 -35 -5 0 -13 -25 -16 -55 -4 -30 -11 -55 -16
-55 -5 0 -9 -13 -9 -29 0 -17 -4 -32 -9 -35 -4 -3 -6 -16 -4 -30 3 -13 0 -27
-6 -30 -6 -4 -11 -25 -11 -47 0 -21 -4 -39 -9 -39 -4 0 -11 -25 -14 -56 -3
-31 -11 -62 -16 -67 -6 -6 -11 -24 -11 -39 0 -15 -5 -28 -11 -28 -5 0 -7 -5
-3 -11 3 -6 1 -23 -6 -37 -18 -38 -28 -63 -36 -92 -4 -13 -27 -44 -51 -67 -43
-42 -45 -43 -110 -43 -53 0 -74 5 -100 23 -18 12 -33 30 -33 39 0 9 -5 18 -10
20 -6 2 -14 29 -17 61 -3 31 -10 57 -14 57 -5 0 -9 45 -9 100 0 55 4 100 9
100 4 0 11 53 15 118 4 64 11 119 17 120 5 2 9 21 9 43 0 21 4 39 8 39 5 0 7
14 4 30 -3 18 0 30 7 30 6 0 11 14 11 30 0 17 4 30 9 30 4 0 11 27 15 60 4 33
11 60 15 60 5 0 12 25 16 55 3 30 11 55 16 55 5 0 9 11 9 25 0 14 4 25 10 25
5 0 7 6 4 14 -3 8 -1 17 5 21 6 3 11 17 11 31 0 13 4 24 10 24 5 0 13 18 16
40 4 22 10 40 15 40 5 0 9 7 9 15 0 8 5 15 11 15 6 0 9 6 6 14 -6 16 13 66 26
66 4 0 7 4 7 10 0 17 34 90 42 90 4 0 5 7 2 15 -4 8 -1 15 5 15 6 0 11 7 11
15 0 8 4 15 9 15 5 0 12 13 16 30 4 16 16 36 27 44 11 8 17 19 13 25 -3 6 -1
11 4 11 6 0 11 9 11 19 0 10 7 21 15 25 8 3 15 11 15 18 0 8 9 20 19 28 11 7
17 18 14 23 -3 5 4 15 16 23 12 8 21 20 21 26 0 6 11 21 24 33 14 13 23 25 20
28 -3 2 15 24 39 48 25 23 43 49 40 56 -3 7 -1 13 4 13 6 0 75 65 154 145 79
80 149 145 154 145 6 0 28 19 50 40 22 22 48 43 57 46 10 3 18 10 18 15 0 5 8
13 17 16 10 4 30 16 44 27 14 12 36 28 49 36 13 8 35 24 49 36 14 11 34 23 44
27 9 3 17 11 17 16 0 5 12 12 27 16 23 5 40 17 100 65 6 5 23 12 37 16 14 3
26 10 26 14 0 5 10 12 23 16 12 4 24 10 27 14 3 3 25 17 50 29 74 37 125 66
130 73 3 3 18 10 33 13 15 4 27 11 27 16 0 4 17 11 38 15 20 4 39 10 42 13 12
14 70 41 89 41 12 0 21 4 21 9 0 5 20 12 45 15 24 4 47 11 50 17 4 5 31 9 61
9 30 0 54 4 54 9 0 4 24 11 53 14 28 3 66 12 82 21 17 9 35 16 42 16 6 0 13 4
15 8 4 10 130 72 146 72 13 0 53 20 62 31 3 3 22 9 42 13 20 4 50 13 65 21 15
8 36 15 46 15 9 0 17 5 17 10 0 6 11 10 24 10 14 0 27 4 31 9 3 6 26 13 50 17
25 3 45 10 45 15 0 4 20 11 45 15 25 3 45 10 45 15 0 5 11 9 24 9 14 0 27 4
30 9 4 5 24 12 46 16 22 4 42 11 45 15 3 5 26 12 50 16 25 3 45 10 45 14 0 4
18 10 40 14 22 3 40 11 40 16 0 6 11 10 25 10 14 0 25 4 25 10 0 5 18 13 40
16 22 4 40 10 40 14 0 5 14 11 30 15 16 4 30 10 30 13 0 4 18 15 40 25 22 9
40 21 40 27 0 5 18 13 40 16 22 4 40 10 40 15 0 5 16 9 35 9 19 0 35 4 35 9 0
4 50 11 111 14 61 3 116 10 122 15 7 6 30 14 52 18 22 4 42 10 45 13 7 10 76
41 89 41 6 0 11 4 11 9 0 5 14 12 30 16 17 4 30 11 30 16 0 5 11 9 25 9 14 0
25 4 25 9 0 5 14 12 30 16 17 4 30 10 30 15 0 4 18 10 40 14 22 3 40 11 40 16
0 6 10 10 23 10 12 0 31 7 41 15 11 8 30 15 43 15 13 0 23 4 23 9 0 5 18 11
40 15 22 3 40 11 40 16 0 6 11 10 24 10 14 0 27 4 30 9 3 5 22 12 41 15 19 4
35 11 35 15 0 5 20 12 45 15 25 4 45 11 45 17 0 5 11 9 24 9 14 0 27 4 30 9 3
5 22 12 41 15 19 4 35 11 35 15 0 5 20 12 45 15 24 4 47 11 50 16 3 5 26 12
50 16 25 3 45 10 45 15 0 5 11 9 25 9 14 0 25 4 25 9 0 5 24 12 53 16 28 4 55
12 59 19 11 16 320 15 325 -1 3 -7 9 -13 15 -13 18 0 83 -33 91 -47 4 -7 19
-13 32 -13 14 0 25 -4 25 -10 0 -12 127 -13 134 -1 3 5 22 12 41 15 19 4 35
11 35 16 0 6 11 10 25 10 14 0 25 4 25 10 0 5 18 13 40 16 22 4 40 10 40 15 0
5 18 12 40 15 22 4 40 10 40 15 0 5 11 9 25 9 14 0 25 4 25 9 0 5 20 12 45 15
24 4 47 11 50 16 3 4 33 11 67 15 34 4 69 11 78 15 29 16 88 40 95 40 15 0 75
72 75 90 0 10 6 20 13 22 9 4 12 66 12 268 0 202 -3 264 -12 267 -7 3 -13 16
-13 29 0 13 -5 24 -11 24 -6 0 -9 7 -5 15 3 8 2 15 -2 15 -4 0 -15 18 -25 40
-9 22 -21 40 -26 40 -5 0 -12 11 -15 25 -4 14 -11 25 -16 25 -6 0 -10 6 -10
13 0 7 -47 60 -105 117 -58 56 -105 108 -105 114 0 12 -35 46 -47 46 -11 0
-123 113 -123 124 0 5 -34 42 -75 83 -41 40 -75 77 -75 82 0 5 -13 23 -30 39
-16 17 -30 35 -30 40 0 6 -16 24 -36 41 -19 17 -33 35 -30 39 3 5 -4 15 -15
22 -10 8 -19 20 -19 26 0 7 -12 22 -27 33 -14 12 -23 24 -20 28 4 3 -2 13 -12
22 -10 9 -21 26 -25 39 -4 12 -12 22 -17 22 -5 0 -9 7 -9 15 0 9 -7 18 -15 21
-8 4 -15 15 -15 25 0 11 -7 22 -15 25 -8 4 -15 12 -15 20 0 8 -4 14 -10 14 -5
0 -10 9 -10 20 0 11 -4 20 -10 20 -5 0 -7 6 -4 14 3 8 -3 17 -15 21 -12 3 -22
19 -27 38 -3 18 -9 34 -13 37 -10 8 -31 43 -37 63 -4 9 -10 17 -14 17 -5 0
-11 14 -15 30 -4 17 -10 30 -15 30 -5 0 -11 14 -15 30 -4 17 -11 30 -16 30 -5
0 -9 11 -9 25 0 14 -4 25 -10 25 -5 0 -12 16 -16 35 -3 19 -10 35 -15 35 -5 0
-12 18 -15 40 -4 22 -10 40 -15 40 -5 0 -9 7 -9 15 0 8 -4 15 -9 15 -5 0 -11
18 -15 40 -3 22 -10 40 -15 40 -5 0 -12 20 -15 45 -4 25 -11 45 -17 45 -5 0
-9 11 -9 25 0 14 -5 25 -11 25 -7 0 -10 12 -7 30 3 17 1 30 -4 30 -4 0 -8 11
-8 25 0 14 -4 25 -9 25 -5 0 -12 29 -16 65 -3 36 -11 65 -16 65 -5 0 -9 13 -9
29 0 17 -5 33 -11 37 -6 3 -9 15 -6 25 3 11 1 19 -4 19 -5 0 -9 11 -9 25 0 14
-4 25 -9 25 -5 0 -12 14 -16 30 -4 17 -11 30 -16 30 -5 0 -9 9 -9 20 0 11 -7
23 -15 26 -8 4 -15 12 -15 19 0 15 -95 111 -132 133 -15 9 -28 19 -28 23 0 4
-12 10 -26 13 -14 4 -31 11 -37 16 -59 48 -76 60 -86 60 -7 0 -14 7 -17 15 -4
8 -11 15 -18 15 -14 0 -156 135 -156 148 0 5 -9 17 -20 27 -11 10 -20 24 -20
32 0 7 -4 13 -9 13 -5 0 -12 10 -16 23 -4 12 -9 24 -10 27 -1 3 -6 15 -10 28
-4 12 -11 22 -15 22 -4 0 -11 20 -14 45 -4 25 -11 45 -17 45 -5 0 -9 17 -9 38
0 21 -5 43 -11 49 -6 6 -10 32 -8 57 3 25 1 46 -3 46 -9 0 -11 254 -3 262 9 9
11 378 3 378 -5 0 -8 23 -8 50 0 28 -4 50 -9 50 -5 0 -12 25 -16 55 -3 30 -11
55 -16 55 -5 0 -9 11 -9 25 0 14 -5 25 -11 25 -6 0 -9 7 -5 15 3 8 1 15 -4 15
-6 0 -10 7 -10 15 0 8 -4 15 -9 15 -5 0 -11 18 -15 40 -3 22 -10 40 -14 40
-11 0 -34 58 -27 70 3 5 1 10 -4 10 -6 0 -11 11 -11 24 0 13 -4 26 -10 28 -5
2 -13 38 -16 81 -4 42 -11 77 -15 77 -12 0 -12 217 -1 224 5 3 12 43 15 88 4
46 11 84 17 86 5 2 10 15 10 28 0 13 4 24 10 24 5 0 7 7 4 15 -4 8 -1 15 5 15
6 0 11 7 11 15 0 8 5 15 10 15 6 0 10 5 10 11 0 22 35 84 57 102 13 10 23 24
23 30 0 14 50 67 63 67 5 0 20 11 33 25 13 14 28 25 33 25 14 0 61 52 61 67 0
7 4 13 9 13 17 0 42 63 48 118 3 28 10 52 14 52 5 0 9 70 9 155 0 85 3 155 8
155 4 0 5 32 4 71 -2 43 1 76 7 82 6 6 11 30 11 54 0 24 4 43 9 43 4 0 12 31
15 70 4 38 11 72 17 75 5 4 9 19 9 36 0 16 5 29 11 29 5 0 7 5 3 11 -3 6 -2
21 4 32 18 37 25 62 23 74 -1 6 3 14 9 18 5 3 10 17 10 31 0 13 4 24 9 24 5 0
11 18 15 40 3 22 11 40 16 40 6 0 10 11 10 25 0 14 5 25 11 25 5 0 8 4 4 9 -3
5 -1 12 5 16 5 3 10 17 10 31 0 13 4 24 9 24 5 0 12 14 16 30 4 17 11 30 16
30 5 0 9 7 9 15 0 8 5 15 10 15 6 0 10 6 9 13 -2 18 12 57 21 57 5 0 11 14 15
30 4 17 11 30 16 30 5 0 9 7 9 15 0 8 5 15 11 15 6 0 9 6 6 13 -3 7 3 19 13
25 10 6 21 25 25 42 4 16 11 30 16 30 5 0 9 9 9 19 0 10 7 21 15 25 8 3 15 12
15 21 0 8 4 15 10 15 5 0 12 11 16 25 3 14 10 25 14 25 4 0 10 8 14 18 8 25
28 54 54 77 12 11 22 28 22 38 0 9 5 17 10 17 6 0 14 8 17 18 4 9 17 28 30 42
13 14 23 29 23 35 1 5 14 21 30 35 17 13 30 30 30 37 0 8 16 27 35 44 19 17
35 35 35 39 0 5 38 47 85 94 47 47 85 91 85 98 1 7 19 27 41 43 22 17 67 55
99 85 73 67 125 110 135 110 4 0 17 10 29 23 12 13 28 26 36 30 8 4 29 16 45
27 17 11 37 23 45 27 8 3 22 15 31 25 9 10 21 18 26 18 6 0 16 6 22 14 7 8 24
17 38 21 15 3 33 15 40 25 7 10 27 21 43 25 17 4 30 11 30 16 0 9 81 49 99 49
6 0 11 4 11 9 0 5 8 11 18 15 18 6 54 27 62 37 3 4 16 10 30 14 14 4 27 11 30
14 7 10 76 41 89 41 6 0 11 4 11 9 0 5 18 11 39 15 22 3 41 9 43 13 6 14 65
43 87 43 12 0 21 4 21 10 0 5 18 13 40 16 22 4 40 10 40 15 0 5 11 9 25 9 14
0 25 4 25 9 0 5 19 11 42 15 23 4 47 11 54 17 6 5 55 12 108 16 53 3 96 10 96
15 0 4 11 8 24 8 14 0 27 4 30 9 3 5 22 12 41 15 19 4 35 11 35 16 0 4 14 11
30 15 17 4 30 10 30 15 0 4 8 10 18 14 9 3 31 15 47 26 17 11 37 23 45 27 8 4
29 22 46 40 17 18 36 33 41 33 5 0 20 11 33 25 13 14 28 25 35 25 6 0 18 9 28
20 9 11 24 20 32 20 8 0 15 4 15 9 0 5 14 12 30 16 17 4 30 10 30 13 0 8 74
42 89 42 5 0 11 5 13 10 2 6 40 13 86 17 45 3 82 10 82 14 0 5 6 9 13 9 21 0
67 54 67 78 0 45 17 51 137 52 61 0 114 -4 117 -9z m97 -527 c77 -16 88 -20
154 -51 64 -30 93 -53 117 -92 36 -57 46 -96 63 -246 13 -115 15 -220 12 -570
-3 -237 -9 -461 -15 -500 -21 -140 -62 -198 -212 -295 -158 -103 -211 -118
-316 -84 -66 21 -63 20 -287 129 l-198 96 4 542 c4 535 11 673 43 835 29 150
69 193 219 233 83 23 318 24 416 3z m-1006 -4729 c930 -3 1773 -8 1875 -12
102 -3 538 -8 970 -12 l785 -6 3 -535 c2 -474 -17 -1265 -32 -1289 -3 -4 -10
-45 -16 -91 -50 -369 -226 -685 -664 -1190 -211 -243 -559 -577 -707 -677 -45
-31 -129 -75 -204 -108 -22 -10 -54 -24 -72 -31 -17 -8 -37 -14 -45 -14 -8 0
-18 -4 -23 -8 -6 -4 -37 -16 -70 -26 -33 -10 -69 -22 -80 -27 -37 -15 -270
-76 -400 -103 -44 -10 -91 -20 -105 -23 -74 -17 -191 -33 -328 -45 -157 -13
-332 -1 -492 36 -14 3 -43 10 -65 15 -301 68 -654 202 -836 317 -115 74 -408
324 -583 500 -298 299 -513 607 -645 929 -18 44 -37 89 -42 100 -10 24 -30 87
-54 170 -9 33 -21 71 -26 85 -16 46 -71 325 -84 430 -30 239 -42 418 -50 780
-7 286 5 586 24 645 6 17 18 66 28 110 9 44 21 83 27 88 6 4 58 5 116 2 58 -2
866 -7 1795 -10z m-2493 -92 c31 -36 42 -96 42 -243 2 -297 -40 -538 -103
-595 -28 -24 -49 -13 -73 38 -55 114 -74 546 -31 685 33 104 121 165 165 115z
m6741 -20 c58 -62 92 -175 107 -358 23 -282 -42 -595 -125 -595 -29 0 -64 34
-71 70 -3 14 -10 34 -15 45 -5 11 -16 97 -24 190 -12 149 -12 191 0 344 16
183 33 263 66 305 25 32 29 32 62 -1z m-2244 -4321 c63 -32 81 -71 106 -232
20 -128 21 -132 89 -271 49 -101 123 -194 212 -267 71 -58 192 -120 261 -132
215 -38 263 -70 271 -181 5 -72 -13 -105 -101 -184 -109 -99 -296 -208 -702
-409 -382 -189 -411 -201 -490 -211 -28 -3 -64 -8 -80 -10 -96 -14 -445 -29
-665 -29 -224 -1 -658 16 -715 28 -11 2 -49 7 -85 11 -89 9 -146 30 -190 68
-44 37 -131 67 -195 67 -78 0 -280 82 -473 192 -46 27 -86 48 -89 48 -10 0
-188 123 -253 176 -132 106 -190 184 -190 257 0 27 5 57 10 67 14 25 90 77
126 86 16 4 34 10 39 14 6 4 33 11 62 15 73 10 232 66 299 106 88 52 193 162
233 243 50 103 54 125 58 325 l4 184 87 -7 c82 -7 329 -21 817 -47 239 -13
900 -6 985 10 30 6 80 15 110 20 30 5 82 17 115 26 208 57 289 66 344 37z
m2032 -1115 c16 -16 29 -37 29 -48 0 -89 -377 -456 -765 -746 -233 -174 -414
-286 -626 -391 -80 -40 -149 -72 -152 -72 -4 0 -32 -12 -64 -26 -81 -37 -108
-48 -193 -79 -41 -14 -84 -31 -95 -35 -20 -9 -52 -18 -155 -46 -30 -8 -71 -20
-90 -25 -82 -24 -298 -64 -427 -78 -46 -6 -87 -12 -91 -15 -4 -2 -145 -10
-312 -16 -284 -11 -809 -2 -890 15 -14 3 -56 10 -95 15 -118 15 -311 54 -395
79 -19 6 -55 16 -80 23 -25 7 -49 16 -55 19 -5 4 -26 10 -45 14 -19 4 -41 11
-50 15 -8 4 -35 16 -60 25 -142 55 -405 178 -540 252 -30 17 -73 40 -95 52
-38 21 -219 137 -240 154 -5 4 -55 40 -110 80 -214 153 -450 354 -606 513
-159 164 -198 233 -170 302 17 40 46 54 111 53 142 -2 272 -79 595 -351 89
-76 226 -178 350 -262 96 -66 160 -103 355 -210 38 -21 158 -76 235 -108 11
-4 36 -15 57 -24 20 -9 43 -16 51 -16 9 0 18 -4 21 -9 3 -5 23 -12 43 -16 21
-4 43 -10 48 -14 6 -4 39 -16 75 -25 36 -10 76 -22 90 -27 14 -5 45 -13 70
-18 25 -6 77 -17 115 -26 140 -33 296 -56 505 -76 148 -14 762 -14 905 0 200
19 385 47 510 76 39 9 90 21 115 26 25 5 56 13 70 18 14 4 52 16 85 26 33 9
67 21 76 25 9 5 33 12 53 15 20 4 39 11 42 16 3 5 12 9 20 9 8 0 34 9 57 19
23 10 71 31 107 46 69 29 192 89 250 122 19 11 62 35 95 53 165 91 442 291
615 445 100 88 167 140 240 186 184 117 336 142 411 66z m-6921 -250 c19 -12
123 -107 230 -212 173 -169 289 -272 415 -370 21 -16 52 -41 69 -55 17 -14 62
-48 99 -75 38 -28 81 -59 95 -71 75 -58 418 -287 542 -361 206 -123 410 -230
545 -287 50 -20 99 -41 110 -46 59 -25 172 -57 245 -69 51 -9 149 -28 265 -52
54 -11 157 -32 275 -55 41 -8 95 -19 120 -25 25 -5 86 -14 135 -19 50 -6 129
-15 176 -20 112 -13 732 -13 869 0 58 5 159 15 225 21 298 26 416 54 489 116
48 40 84 52 196 64 147 16 282 47 306 72 4 4 13 7 20 7 21 0 284 123 379 178
28 16 75 42 105 59 119 65 408 249 515 327 22 17 65 48 95 70 146 107 282 222
425 357 250 236 412 377 489 427 63 41 108 43 141 5 36 -42 50 -131 60 -368
36 -851 44 -1419 44 -2970 0 -1709 -13 -2209 -56 -2258 -50 -54 -167 -70 -733
-99 -385 -19 -5956 -19 -6335 0 -469 24 -610 38 -685 69 -55 23 -61 41 -71
200 -20 344 -29 1141 -29 2593 0 1483 9 2273 29 2595 9 134 13 157 37 203 43
84 86 97 164 49z m-729 -227 c20 -6 42 -17 49 -25 49 -60 72 -393 87 -1259 10
-635 10 -2244 0 -2866 -15 -853 -34 -1119 -90 -1226 -40 -77 -219 -109 -602
-109 -266 0 -786 22 -798 34 -13 13 -32 1990 -31 3271 0 1254 8 1615 38 1684
24 54 108 140 159 161 23 9 50 21 59 26 10 5 24 9 33 9 8 0 36 7 62 15 26 8
71 22 98 31 28 9 59 19 70 24 11 5 45 16 75 26 30 10 59 22 64 26 6 4 17 8 25
8 9 0 29 7 45 15 15 8 33 15 38 15 6 0 24 6 41 14 31 13 67 28 77 31 3 0 57
18 120 39 181 60 303 77 381 56z m9109 -29 c69 -10 176 -32 250 -51 25 -7 50
-13 55 -14 31 -7 163 -48 177 -57 10 -5 23 -9 29 -9 6 0 27 -7 47 -16 61 -26
72 -31 192 -79 63 -25 123 -50 132 -55 10 -6 23 -10 30 -10 7 0 24 -6 38 -13
14 -7 51 -21 83 -32 78 -26 104 -66 123 -190 25 -164 28 -353 27 -1430 -2
-1380 -20 -3456 -30 -3466 -9 -9 -412 -29 -740 -36 -363 -8 -611 30 -659 102
-76 115 -99 716 -99 2600 0 1573 24 2707 59 2742 30 31 142 36 286 14z m1885
-663 c147 -48 358 -165 555 -307 343 -249 607 -576 750 -931 12 -30 26 -64 30
-75 41 -100 79 -238 121 -435 32 -154 83 -499 93 -630 5 -64 16 -184 26 -275
6 -49 15 -171 20 -270 6 -99 15 -259 21 -355 13 -223 14 -233 30 -618 22 -549
-5 -725 -129 -820 -107 -82 -240 -97 -732 -82 -528 16 -984 31 -986 33 -6 6
-15 615 -24 1527 -17 1793 -9 3186 19 3237 19 36 96 37 206 1z"/>
<path d="M9830 18071 c0 -4 -30 -11 -66 -14 -37 -3 -69 -9 -73 -14 -3 -5 -22
-17 -41 -26 -46 -22 -70 -41 -70 -56 0 -6 -4 -11 -10 -11 -5 0 -12 -17 -15
-37 -3 -21 -10 -46 -16 -55 -5 -10 -9 -31 -9 -46 0 -16 -3 -32 -7 -35 -4 -4
-6 -32 -4 -61 1 -30 -2 -57 -8 -61 -7 -4 -11 -49 -11 -115 0 -62 -4 -111 -10
-115 -6 -4 -10 -174 -10 -478 l0 -472 69 -32 c38 -18 74 -33 80 -33 6 0 11 -4
11 -10 0 -5 7 -10 15 -10 8 0 15 -4 15 -10 0 -5 6 -10 13 -10 6 -1 30 -9 52
-20 22 -11 46 -19 53 -20 6 0 12 -4 12 -9 0 -5 12 -12 28 -15 38 -10 82 -30
82 -38 0 -3 25 -10 55 -13 30 -4 55 -11 55 -16 0 -5 9 -9 20 -9 11 0 20 5 20
10 0 6 11 10 26 10 29 0 114 36 114 49 0 5 8 11 18 15 20 6 50 25 70 44 7 6
18 12 24 12 5 0 19 11 30 25 11 14 26 25 34 25 8 0 14 7 14 15 0 8 4 15 10 15
5 0 12 11 16 25 3 14 10 25 14 25 5 0 12 25 15 55 4 30 11 55 16 55 5 0 9 36
9 80 0 44 3 80 8 80 4 0 7 180 7 400 0 220 -3 400 -7 400 -5 0 -8 38 -8 84 0
47 -4 87 -9 90 -4 3 -11 33 -15 66 -4 33 -11 60 -15 60 -5 0 -12 12 -16 28 -7
31 -52 82 -72 82 -7 0 -13 5 -13 10 0 6 -5 10 -11 10 -11 0 -67 22 -101 41
-10 5 -49 12 -88 15 -38 4 -70 11 -70 15 0 5 -52 9 -115 9 -63 0 -115 -4 -115
-9z"/>
<path d="M7242 13328 c-5 -7 -13 -39 -17 -70 -4 -32 -11 -58 -16 -58 -5 0 -9
-17 -9 -38 0 -21 -3 -42 -7 -46 -4 -3 -6 -29 -4 -56 1 -31 -2 -50 -8 -50 -8 0
-11 -114 -11 -375 0 -255 3 -375 11 -375 6 0 9 -43 8 -126 -1 -69 2 -128 5
-131 3 -4 6 -42 6 -85 0 -43 4 -78 9 -78 5 0 12 -49 16 -110 3 -60 11 -110 16
-110 5 0 9 -20 9 -44 0 -25 5 -48 11 -52 6 -3 9 -22 7 -40 -2 -19 0 -34 4 -34
4 0 8 -16 8 -35 0 -19 4 -35 9 -35 5 0 12 -25 16 -55 3 -30 11 -55 16 -55 5 0
9 -13 9 -29 0 -17 5 -33 11 -37 6 -3 9 -15 6 -25 -3 -11 -1 -19 4 -19 5 0 9
-11 9 -25 0 -14 4 -25 9 -25 5 0 11 -18 15 -40 3 -22 11 -40 16 -40 6 0 10
-11 10 -25 0 -14 4 -25 10 -25 5 0 7 -7 4 -15 -4 -8 -1 -15 5 -15 6 0 11 -11
11 -25 0 -14 4 -25 9 -25 5 0 12 -13 16 -30 4 -16 10 -30 15 -30 8 0 23 -38
21 -52 -1 -5 3 -8 9 -8 5 0 10 -9 10 -20 0 -11 5 -20 10 -20 6 0 10 -6 10 -14
0 -7 6 -19 14 -25 8 -7 18 -26 21 -42 4 -16 10 -29 15 -29 4 0 11 -8 14 -17
13 -35 37 -73 47 -73 5 0 9 -9 9 -19 0 -11 9 -23 21 -26 11 -4 18 -13 15 -20
-2 -7 6 -23 20 -36 13 -12 24 -26 24 -31 0 -5 11 -19 25 -32 14 -13 25 -28 25
-34 0 -5 16 -24 36 -42 20 -17 34 -34 30 -37 -3 -3 24 -34 59 -70 36 -35 65
-67 65 -72 0 -10 175 -184 191 -190 6 -2 42 -34 79 -72 37 -38 72 -69 77 -69
5 0 27 -18 48 -40 21 -22 43 -40 47 -40 4 0 26 -17 48 -37 50 -48 106 -93 114
-93 4 0 19 -11 34 -25 15 -14 36 -28 47 -31 11 -4 27 -13 36 -20 25 -22 152
-84 172 -84 9 0 17 -4 17 -10 0 -5 18 -13 40 -16 22 -4 40 -10 40 -14 0 -5 14
-12 32 -15 18 -4 39 -11 48 -15 40 -21 90 -40 103 -40 9 0 18 -4 21 -9 3 -4
26 -11 51 -14 24 -4 55 -12 67 -18 47 -25 56 -27 112 -34 31 -4 58 -11 61 -15
3 -5 39 -11 80 -15 41 -4 75 -11 75 -16 0 -5 23 -9 50 -9 28 0 50 -4 50 -10 0
-14 377 -14 385 0 3 6 32 10 64 10 31 0 61 4 67 10 5 5 46 12 92 16 45 4 82
10 82 15 0 4 32 11 70 15 39 3 70 11 70 15 0 5 16 9 35 9 19 0 35 4 35 9 0 5
25 12 55 16 30 3 55 10 55 15 0 4 25 11 55 15 30 3 55 11 55 16 0 5 11 9 25 9
14 0 25 4 25 9 0 5 20 12 45 15 24 4 47 11 50 15 2 5 21 12 40 15 19 4 35 11
35 16 0 6 10 10 23 10 12 0 31 7 41 15 11 8 30 15 43 15 13 0 23 5 23 10 0 6
4 10 10 10 17 0 90 34 90 43 0 4 10 12 23 17 36 16 60 33 95 68 18 17 37 32
42 32 6 0 29 20 52 45 23 25 47 45 53 45 14 0 437 424 430 431 -3 3 22 31 55
62 33 31 60 61 60 67 0 5 18 27 40 49 22 21 40 43 40 48 0 5 18 27 40 48 22
21 40 43 40 48 0 4 11 18 25 31 13 13 22 26 18 30 -4 3 3 14 16 22 12 9 26 26
32 38 14 34 32 59 57 81 12 11 22 28 22 38 0 9 5 17 10 17 6 0 18 18 27 40 10
22 21 40 25 40 8 0 48 83 48 99 0 6 5 11 10 11 6 0 10 7 10 15 0 8 5 15 11 15
6 0 9 7 5 15 -3 8 -1 15 4 15 6 0 10 7 10 15 0 8 4 15 9 15 5 0 12 18 16 40 4
22 11 40 16 40 5 0 9 11 9 25 0 14 5 25 10 25 6 0 8 11 4 25 -4 15 -2 25 5 25
6 0 11 11 11 25 0 14 4 25 9 25 5 0 12 36 16 80 4 44 11 80 16 80 5 0 9 25 9
55 0 30 3 55 8 55 4 0 6 38 4 85 -2 56 0 85 7 85 8 0 11 113 11 370 0 240 4
370 10 370 7 0 10 152 10 435 l0 435 -83 0 c-46 0 -87 4 -92 9 -6 6 -778 12
-1917 17 -1050 4 -1908 11 -1908 15 0 5 -341 9 -759 9 -595 0 -761 -3 -769
-12z"/>
<path d="M6590 13242 c-44 -29 -76 -66 -72 -84 2 -9 -2 -19 -7 -23 -6 -3 -11
-19 -11 -36 0 -16 -4 -29 -10 -29 -6 0 -10 -73 -10 -200 0 -127 4 -200 10
-200 6 0 10 -25 10 -55 0 -34 4 -55 11 -55 7 0 10 -12 7 -30 -3 -16 -1 -30 4
-30 4 0 8 -11 8 -23 0 -22 27 -57 43 -57 6 0 24 37 42 85 5 11 7 28 6 38 -1 9
3 17 8 17 6 0 11 15 11 34 0 19 5 36 10 38 6 2 13 70 17 166 3 89 10 162 15
162 4 0 8 14 8 30 0 17 -4 30 -9 30 -5 0 -11 41 -13 91 -2 50 -9 94 -15 97 -6
4 -12 16 -14 26 -5 26 -19 28 -49 8z"/>
<path d="M13340 13214 c-5 -16 -15 -37 -20 -46 -6 -10 -10 -29 -10 -43 0 -14
-3 -25 -8 -25 -4 0 -6 -20 -4 -45 3 -28 0 -45 -7 -45 -8 0 -11 -72 -11 -240 0
-167 3 -240 11 -240 7 0 10 -20 7 -55 -1 -30 0 -55 5 -55 4 0 7 -11 7 -25 0
-14 4 -25 9 -25 5 0 12 -13 16 -29 11 -49 30 -57 60 -25 14 15 25 33 25 40 0
8 4 14 9 14 5 0 13 25 16 55 4 30 11 55 16 55 5 0 9 23 9 50 0 28 3 50 8 50 4
0 7 81 7 180 0 99 -3 180 -7 180 -5 0 -8 23 -8 50 0 28 -4 50 -9 50 -5 0 -12
20 -15 45 -4 25 -11 45 -15 45 -8 0 -24 37 -23 51 1 3 -12 19 -28 34 l-29 28
-11 -29z"/>
<path d="M10965 8900 c-3 -5 -19 -10 -36 -10 -16 0 -29 -4 -29 -9 0 -5 -25
-13 -55 -16 -30 -4 -55 -11 -55 -15 0 -5 -36 -12 -80 -16 -44 -3 -80 -11 -80
-15 0 -5 -40 -9 -90 -9 -53 0 -90 -4 -90 -10 0 -7 -152 -10 -435 -10 -283 0
-435 3 -435 10 0 6 -55 10 -145 10 -80 0 -145 4 -145 9 0 5 -121 12 -270 16
-148 4 -270 11 -270 16 0 5 -11 9 -25 9 l-25 0 0 -189 c0 -110 -4 -192 -10
-196 -5 -3 -7 -12 -4 -20 6 -15 -16 -75 -28 -75 -3 0 -9 -13 -13 -30 -4 -16
-11 -30 -16 -30 -5 0 -9 -6 -9 -14 0 -19 -164 -178 -200 -193 -16 -7 -31 -17
-35 -23 -3 -5 -17 -10 -31 -10 -13 0 -24 -3 -24 -8 0 -9 -46 -30 -88 -38 -18
-4 -35 -10 -37 -15 -3 -4 -37 -11 -75 -15 -39 -3 -70 -11 -70 -15 0 -5 -11 -9
-25 -9 -14 0 -25 -4 -25 -9 0 -5 -13 -12 -30 -16 -16 -4 -30 -10 -30 -15 0 -4
-11 -11 -25 -14 -15 -4 -27 -16 -31 -31 -3 -14 -10 -25 -15 -25 -5 0 -9 -13
-9 -30 0 -16 4 -30 9 -30 5 0 13 -14 16 -32 4 -17 17 -41 29 -52 11 -12 26
-30 32 -40 6 -11 19 -24 29 -30 11 -6 36 -28 58 -48 21 -21 42 -38 48 -38 5 0
20 -10 32 -22 25 -26 54 -46 80 -54 9 -4 17 -10 17 -15 0 -8 16 -18 90 -55 19
-10 37 -20 40 -23 8 -10 43 -29 93 -53 26 -13 47 -26 47 -30 0 -5 5 -8 12 -8
6 0 39 -13 72 -29 101 -47 134 -61 144 -61 5 0 23 -7 38 -15 16 -8 41 -15 57
-15 15 0 27 -4 27 -10 0 -6 28 -10 65 -10 36 0 65 -4 65 -9 0 -5 18 -11 40
-15 22 -3 40 -11 40 -16 0 -6 7 -10 15 -10 8 0 15 -5 15 -11 0 -22 33 -42 78
-47 26 -3 49 -9 52 -13 3 -5 68 -11 143 -15 76 -4 140 -11 143 -16 3 -4 108
-8 235 -8 146 0 229 -4 229 -10 0 -6 33 -10 80 -10 47 0 80 4 80 10 0 6 82 10
225 10 124 0 225 4 225 8 0 5 55 12 121 15 67 4 127 11 133 16 6 4 29 11 50
14 22 4 42 10 45 14 11 15 69 43 90 43 12 0 21 5 21 10 0 6 4 10 10 10 16 0
90 34 90 42 0 3 14 9 30 13 17 4 30 11 30 16 0 5 4 9 10 9 16 0 90 34 90 42 0
3 14 9 30 13 17 4 30 11 30 16 0 5 4 9 10 9 16 0 90 34 90 42 0 3 14 9 30 13
17 4 30 10 30 15 0 5 13 11 29 15 16 3 35 13 42 22 7 8 41 28 74 43 33 15 67
35 74 43 7 9 26 19 42 22 16 4 29 11 29 16 0 5 10 14 23 19 32 14 59 32 78 53
9 9 20 17 25 17 14 0 124 114 124 128 0 7 4 12 10 12 5 0 7 7 4 15 -4 8 -1 15
5 15 6 0 11 11 11 25 0 14 -5 25 -11 25 -6 0 -9 9 -6 19 6 26 -58 89 -101 97
-18 4 -35 11 -38 15 -3 5 -25 9 -50 9 -24 0 -44 4 -44 9 0 4 -24 11 -52 14
-29 4 -54 11 -56 17 -2 5 -8 10 -14 10 -18 0 -83 33 -91 47 -4 7 -14 13 -21
13 -7 0 -23 11 -36 25 -13 14 -27 25 -32 25 -13 0 -98 83 -98 97 0 6 -11 20
-25 31 -14 11 -25 27 -25 36 0 9 -7 19 -15 22 -8 4 -15 12 -15 20 0 8 -4 14
-10 14 -5 0 -10 9 -10 20 0 11 -4 20 -10 20 -5 0 -7 7 -4 15 4 8 1 15 -5 15
-6 0 -11 7 -11 15 0 8 -4 15 -9 15 -5 0 -12 20 -15 45 -4 24 -11 47 -17 50 -5
4 -9 21 -9 40 0 19 -5 37 -11 40 -6 4 -10 28 -8 54 1 45 -3 69 -22 103 -5 10
-9 24 -9 33 0 8 -15 30 -34 50 -34 34 -36 35 -115 35 -44 0 -83 -4 -86 -10z"/>
<path d="M6860 7802 c-14 -9 -28 -21 -32 -27 -11 -15 -10 -73 2 -80 6 -4 8
-10 5 -14 -2 -5 7 -19 20 -31 14 -13 25 -28 25 -33 0 -13 322 -336 335 -337 6
0 29 -18 50 -40 21 -22 44 -40 51 -40 6 0 21 -13 34 -30 13 -16 28 -30 35 -30
6 0 26 -16 45 -35 19 -19 40 -35 47 -35 8 0 16 -7 19 -15 3 -8 15 -17 27 -21
12 -4 30 -17 40 -30 10 -13 24 -24 31 -24 7 0 23 -11 36 -25 13 -14 29 -25 37
-25 7 0 13 -5 13 -10 0 -6 10 -15 23 -20 32 -14 63 -35 113 -74 17 -14 42 -28
57 -31 15 -4 27 -10 27 -14 0 -3 17 -15 38 -26 20 -11 39 -23 42 -26 8 -11 84
-49 97 -49 6 0 13 -3 15 -8 4 -9 131 -72 146 -72 6 0 12 -3 14 -8 4 -9 106
-62 120 -62 12 0 81 -32 88 -41 3 -3 22 -9 43 -13 20 -4 37 -11 37 -16 0 -4
14 -12 32 -15 18 -4 41 -12 53 -18 47 -24 56 -27 95 -33 22 -4 40 -10 40 -14
0 -4 20 -11 45 -14 24 -4 47 -11 50 -17 4 -5 19 -9 36 -9 16 0 29 -4 29 -9 0
-5 30 -12 68 -16 37 -4 72 -11 78 -16 5 -4 47 -11 92 -15 45 -4 82 -11 82 -15
0 -5 29 -9 64 -9 43 0 66 -4 69 -12 3 -10 126 -13 572 -13 446 0 569 3 573 13
2 8 25 12 68 12 35 0 64 4 64 9 0 5 45 12 100 16 55 3 102 10 105 14 2 5 36
11 75 15 38 4 70 11 70 17 0 5 13 9 29 9 17 0 32 4 35 9 3 5 33 12 66 16 33 4
60 10 60 15 0 4 18 10 40 14 23 3 50 11 60 16 49 24 57 28 88 34 17 4 34 12
37 17 4 5 13 9 22 9 15 0 67 21 115 46 14 8 36 14 47 14 12 0 21 5 21 10 0 6
4 10 10 10 16 0 90 34 90 42 0 3 14 9 30 13 17 4 30 11 30 16 0 5 4 9 10 9 16
0 90 34 90 42 0 3 14 9 30 13 17 4 30 11 30 16 0 5 4 9 10 9 17 0 90 34 90 42
0 4 20 17 45 28 25 11 45 24 45 29 0 5 8 11 18 15 20 6 50 25 70 44 7 6 18 12
23 12 10 0 13 2 70 50 20 16 40 30 44 30 4 0 18 11 31 25 13 14 27 25 32 25 5
0 19 11 32 25 13 14 29 25 36 25 7 0 21 11 32 25 11 14 25 25 30 25 6 0 24 14
40 30 17 17 34 30 39 30 5 0 27 18 48 40 21 22 43 40 47 40 5 0 31 23 58 50
27 28 53 50 58 50 10 0 282 273 282 283 0 4 11 18 24 30 13 12 27 33 31 47 4
14 13 28 19 32 12 8 -9 30 -56 61 -29 18 -142 25 -152 8 -3 -5 -22 -12 -41
-15 -19 -4 -35 -11 -35 -16 0 -6 -11 -10 -24 -10 -13 0 -29 -7 -36 -15 -7 -8
-17 -15 -23 -15 -5 0 -24 -10 -41 -23 -17 -13 -39 -26 -48 -30 -10 -3 -18 -11
-18 -17 0 -5 -6 -10 -14 -10 -7 0 -32 -18 -54 -40 -22 -22 -44 -40 -49 -40 -5
0 -29 -20 -53 -45 -24 -25 -48 -45 -52 -45 -4 0 -26 -17 -48 -37 -52 -50 -106
-93 -115 -93 -4 0 -18 -11 -31 -25 -13 -14 -27 -25 -31 -25 -5 0 -20 -10 -34
-22 -32 -29 -59 -47 -81 -54 -10 -4 -18 -10 -18 -15 0 -5 -10 -14 -22 -19 -29
-12 -58 -31 -77 -49 -8 -8 -29 -20 -46 -28 -31 -14 -66 -34 -75 -43 -10 -10
-45 -31 -62 -36 -10 -4 -18 -10 -18 -15 0 -5 -5 -9 -11 -9 -16 0 -143 -63
-147 -72 -2 -5 -21 -11 -43 -14 -21 -4 -39 -10 -39 -14 0 -5 -13 -11 -30 -15
-16 -4 -30 -11 -30 -16 0 -5 -11 -9 -25 -9 -14 0 -25 -4 -25 -10 0 -5 -18 -13
-40 -16 -22 -4 -40 -10 -40 -14 0 -4 -18 -10 -40 -14 -22 -3 -40 -11 -40 -16
0 -6 -13 -10 -29 -10 -17 0 -32 -4 -36 -9 -3 -6 -26 -13 -50 -17 -25 -3 -45
-10 -45 -14 0 -4 -27 -11 -60 -15 -33 -4 -63 -11 -66 -16 -3 -5 -18 -9 -34 -9
-16 0 -31 -4 -34 -9 -4 -5 -40 -12 -81 -16 -41 -4 -75 -11 -75 -15 0 -5 -50
-12 -110 -15 -61 -4 -113 -12 -116 -16 -3 -5 -38 -9 -78 -9 -42 0 -77 -5 -84
-12 -17 -17 -877 -17 -894 0 -7 7 -43 12 -90 12 -43 0 -78 4 -78 9 0 4 -48 11
-107 15 -59 4 -110 11 -113 15 -3 5 -40 12 -82 16 -43 4 -78 11 -78 16 0 5
-13 9 -29 9 -17 0 -32 4 -35 9 -3 5 -33 12 -66 16 -33 4 -60 11 -60 15 0 4
-20 11 -45 14 -24 4 -47 11 -50 17 -4 5 -18 9 -33 9 -15 0 -36 7 -46 15 -11 8
-30 15 -43 15 -13 0 -23 4 -23 9 0 5 -18 11 -40 15 -22 3 -40 11 -40 16 0 6
-11 10 -25 10 -14 0 -25 5 -25 10 0 6 -6 10 -12 10 -7 0 -25 6 -40 14 -15 8
-40 17 -57 21 -17 4 -31 10 -31 13 0 8 -74 42 -90 42 -6 0 -10 4 -10 9 0 5
-13 12 -30 16 -16 4 -30 10 -30 15 0 4 -8 10 -17 14 -19 6 -55 27 -63 37 -3 4
-15 9 -27 13 -13 4 -23 11 -23 16 0 4 -12 11 -27 15 -15 3 -34 14 -42 24 -9
10 -23 21 -31 24 -8 4 -28 16 -45 27 -16 11 -38 23 -47 26 -9 3 -19 12 -22 20
-3 8 -11 14 -19 14 -7 0 -24 11 -37 25 -13 14 -27 25 -32 25 -5 0 -19 11 -32
25 -13 14 -28 25 -33 25 -5 0 -20 11 -33 25 -13 14 -28 25 -34 25 -6 0 -28 18
-49 40 -20 22 -42 40 -47 40 -5 0 -29 20 -52 45 -23 25 -47 45 -52 45 -5 0
-30 18 -55 41 -25 22 -51 43 -57 47 -39 26 -51 33 -64 39 -8 4 -21 13 -28 20
-7 7 -20 13 -28 13 -8 0 -14 4 -14 9 0 5 -13 12 -30 16 -16 4 -30 10 -30 15 0
4 -20 11 -45 14 -24 4 -47 11 -50 17 -10 15 -78 9 -105 -9z"/>
<path d="M6180 7561 c0 -3 -10 -11 -22 -16 -13 -6 -27 -24 -32 -42 -5 -18 -13
-33 -17 -33 -5 0 -9 -7 -9 -15 0 -8 -4 -15 -8 -15 -5 0 -7 -25 -4 -55 3 -37 1
-55 -7 -55 -8 0 -11 -57 -11 -194 0 -147 -3 -195 -12 -199 -10 -3 -13 -459
-13 -2237 0 -1778 3 -2234 13 -2238 9 -3 12 -50 12 -191 0 -124 4 -191 11
-198 6 -6 9 -30 7 -55 -6 -59 28 -94 101 -104 28 -4 51 -10 51 -15 0 -5 29 -9
64 -9 35 0 66 -5 68 -10 2 -7 123 -13 341 -17 186 -3 340 -10 343 -15 7 -11
5851 -11 5858 0 3 5 157 12 343 15 218 4 339 10 341 17 2 5 33 10 68 10 35 0
64 4 64 9 0 5 23 11 51 15 65 9 99 42 99 97 0 22 5 39 10 39 6 0 10 55 10 145
0 80 3 145 8 145 4 0 6 147 4 327 -2 214 1 330 8 337 14 14 14 2348 0 2362 -7
7 -9 171 -8 482 2 260 0 472 -4 472 -5 0 -8 126 -8 280 0 154 -4 280 -8 280
-5 0 -12 118 -16 263 -4 154 -11 263 -16 265 -6 2 -10 21 -10 43 0 26 -5 42
-15 45 -8 4 -15 12 -15 20 0 8 -6 14 -14 14 -8 0 -16 6 -19 13 -3 9 -10 9 -33
-3 -41 -21 -86 -52 -105 -72 -9 -10 -21 -18 -26 -18 -5 0 -29 -20 -53 -45 -24
-25 -48 -45 -53 -45 -5 0 -49 -40 -98 -90 -49 -49 -93 -90 -98 -90 -4 0 -53
-45 -107 -100 -54 -55 -103 -100 -109 -100 -5 0 -32 -23 -60 -50 -27 -28 -54
-50 -60 -50 -5 -1 -21 -14 -35 -30 -13 -17 -29 -30 -35 -30 -6 0 -22 -11 -35
-25 -13 -14 -28 -25 -33 -25 -5 0 -20 -11 -33 -25 -13 -14 -27 -25 -32 -25 -5
0 -17 -10 -28 -21 -10 -12 -28 -25 -39 -30 -29 -13 -56 -31 -79 -54 -25 -24
-55 -44 -78 -51 -10 -4 -18 -10 -18 -15 0 -5 -10 -14 -22 -19 -24 -10 -43 -22
-93 -55 -36 -25 -65 -42 -85 -51 -8 -4 -17 -10 -20 -13 -9 -10 -44 -31 -62
-37 -10 -4 -18 -10 -18 -14 0 -5 -13 -11 -29 -15 -16 -3 -35 -13 -42 -21 -6
-8 -18 -14 -25 -14 -8 0 -14 -3 -14 -8 0 -8 -73 -42 -90 -42 -6 0 -10 -4 -10
-9 0 -5 -13 -12 -30 -16 -16 -4 -30 -10 -30 -13 0 -8 -74 -42 -90 -42 -6 0
-10 -4 -10 -9 0 -5 -13 -12 -30 -16 -16 -4 -30 -10 -30 -13 0 -8 -44 -28 -83
-38 -15 -3 -30 -10 -32 -15 -3 -4 -26 -11 -50 -15 -25 -3 -45 -10 -45 -15 0
-5 -11 -9 -24 -9 -13 0 -26 -5 -28 -11 -2 -6 -46 -13 -108 -16 -58 -2 -114 -8
-125 -13 -11 -5 -37 -11 -57 -15 -21 -3 -38 -10 -38 -15 0 -6 -6 -10 -13 -10
-8 0 -24 -11 -37 -24 -12 -14 -35 -28 -51 -31 -16 -4 -29 -11 -29 -16 0 -5
-13 -9 -28 -9 -15 0 -32 -4 -37 -9 -6 -6 -46 -13 -90 -17 -44 -4 -82 -10 -85
-15 -3 -4 -74 -11 -158 -15 -84 -4 -155 -11 -158 -15 -3 -5 -90 -9 -194 -9
-115 0 -191 -4 -195 -10 -4 -6 -63 -10 -145 -10 -82 0 -141 4 -145 10 -4 6
-75 10 -181 10 -96 0 -174 4 -174 9 0 4 -53 11 -117 15 -65 4 -120 11 -123 15
-3 5 -38 12 -78 16 -39 4 -75 11 -78 16 -3 5 -18 9 -34 9 -16 0 -31 4 -34 9
-4 5 -40 12 -81 16 -41 4 -75 11 -75 15 0 4 -36 11 -80 15 -44 4 -80 11 -80
16 0 5 -16 9 -35 9 -19 0 -43 4 -53 10 -9 5 -47 12 -84 15 -38 4 -68 10 -68
15 0 4 -18 10 -40 14 -23 3 -49 10 -58 15 -33 18 -90 41 -100 41 -14 0 -116
53 -120 62 -2 5 -9 8 -15 8 -15 0 -141 62 -145 72 -2 4 -8 8 -13 8 -18 0 -103
42 -124 60 -11 10 -31 21 -45 25 -14 4 -27 10 -30 14 -7 9 -41 29 -75 44 -16
8 -36 21 -44 30 -7 10 -20 17 -28 17 -7 0 -16 6 -19 14 -3 8 -17 17 -32 21
-14 3 -39 17 -56 31 -45 35 -80 59 -106 71 -8 4 -21 13 -28 20 -7 7 -19 13
-27 13 -7 0 -15 7 -19 15 -3 8 -10 15 -17 15 -10 0 -55 32 -90 65 -9 8 -20 15
-26 15 -5 0 -18 9 -28 20 -10 11 -23 20 -28 20 -6 0 -17 7 -26 15 -41 37 -90
75 -98 75 -5 0 -20 11 -33 25 -13 14 -28 25 -34 25 -6 1 -22 14 -36 30 -13 17
-29 30 -35 30 -6 0 -26 16 -45 35 -19 19 -39 35 -44 35 -6 0 -27 18 -46 40
-19 22 -40 40 -46 40 -7 0 -43 31 -80 70 -38 38 -73 70 -79 70 -5 1 -41 32
-80 70 -38 39 -73 70 -77 70 -4 0 -8 8 -8 18 0 19 -39 62 -56 62 -5 0 -27 18
-48 40 -22 22 -45 40 -53 40 -7 0 -13 3 -13 8 0 4 -11 12 -25 19 -14 6 -25 8
-25 4z"/>
<path d="M5360 7301 c0 -4 -25 -11 -56 -14 -30 -3 -61 -10 -67 -15 -7 -5 -31
-12 -55 -16 -39 -6 -80 -22 -92 -37 -3 -3 -22 -9 -42 -13 -20 -4 -50 -13 -65
-21 -15 -8 -36 -15 -45 -15 -10 0 -18 -4 -18 -10 0 -5 -10 -10 -22 -10 -13 0
-32 -7 -42 -15 -11 -8 -30 -15 -43 -15 -13 0 -23 -4 -23 -9 0 -5 -18 -11 -40
-15 -23 -3 -49 -10 -58 -15 -33 -18 -103 -41 -122 -41 -11 0 -20 -4 -20 -9 0
-5 -25 -13 -55 -16 -30 -4 -55 -11 -55 -15 0 -4 -18 -10 -40 -14 -22 -3 -40
-10 -40 -14 0 -4 -15 -13 -32 -21 -32 -14 -98 -73 -98 -87 0 -4 -7 -15 -15
-24 -9 -10 -18 -46 -22 -84 -3 -36 -10 -66 -14 -66 -5 0 -9 -137 -9 -305 0
-168 -3 -305 -7 -305 -9 0 -6 -2000 2 -2008 3 -3 5 -333 5 -734 0 -479 3 -728
10 -728 6 0 10 -129 10 -368 l0 -369 197 -6 c108 -4 256 -7 330 -7 82 0 133
-4 133 -10 0 -12 256 -14 264 -2 3 5 69 12 147 15 78 3 147 11 153 17 5 5 20
10 31 10 40 0 108 44 118 75 6 17 14 32 18 35 4 3 11 47 15 98 4 50 11 92 15
92 5 0 9 42 9 94 0 67 4 96 13 99 9 3 12 458 12 2232 0 1774 -3 2229 -12 2233
-9 2 -13 33 -13 108 0 68 -4 104 -11 104 -7 0 -10 21 -7 60 1 33 0 60 -4 60
-5 0 -8 16 -8 35 0 19 -4 35 -9 35 -5 0 -11 9 -14 20 -3 11 -12 20 -21 20 -9
0 -16 5 -16 10 0 6 -35 10 -85 10 -47 0 -85 -4 -85 -9z"/>
<path d="M14413 7283 c-52 -7 -57 -20 -61 -192 -3 -101 -8 -159 -16 -163 -13
-8 -26 -4158 -13 -4158 4 0 7 -88 7 -195 0 -107 4 -195 8 -195 5 0 12 -66 16
-147 3 -82 11 -149 16 -151 6 -2 10 -21 10 -43 0 -22 5 -39 11 -39 6 0 9 -7 5
-15 -3 -8 -2 -15 3 -15 5 0 11 -8 13 -18 6 -21 82 -62 114 -62 11 0 25 -5 30
-10 6 -6 75 -14 153 -17 78 -3 144 -10 147 -15 7 -12 251 -10 259 2 4 6 59 10
133 10 70 0 218 3 330 7 l202 6 0 388 c0 248 4 390 10 394 7 4 10 277 10 786
0 428 3 779 8 779 4 0 7 491 7 1090 0 600 -3 1090 -7 1090 -5 0 -8 61 -8 135
0 74 -4 135 -9 135 -4 0 -11 39 -15 88 -3 48 -11 89 -16 90 -6 2 -10 10 -10
18 0 8 -5 14 -11 14 -6 0 -9 6 -6 13 4 12 -55 46 -81 47 -12 0 -22 4 -79 34
-17 9 -41 16 -52 16 -12 0 -21 4 -21 10 0 5 -18 13 -40 16 -22 4 -40 10 -40
14 0 5 -14 12 -32 15 -17 4 -46 15 -63 25 -17 10 -46 21 -63 25 -18 3 -32 11
-32 16 0 5 -10 9 -23 9 -13 0 -32 7 -43 15 -10 8 -29 15 -41 15 -13 0 -23 4
-23 9 0 5 -20 12 -45 15 -24 4 -47 11 -50 16 -3 4 -32 11 -65 15 -33 4 -60 11
-60 16 0 5 -15 9 -34 9 -19 0 -36 4 -38 10 -1 5 -37 13 -78 16 -41 4 -77 10
-80 14 -6 9 -193 19 -237 13z"/>
<path d="M16347 6622 c-13 -15 -17 -39 -17 -110 0 -55 -4 -92 -10 -92 -7 0
-10 -548 -10 -1624 0 -1073 3 -1627 10 -1631 6 -4 10 -231 10 -649 l0 -643
272 -6 c149 -4 345 -7 435 -7 102 0 163 -4 163 -10 0 -6 108 -10 305 -10 168
0 305 4 305 9 0 4 28 11 63 14 60 5 117 24 117 40 0 4 6 7 13 7 16 0 77 62 77
78 0 7 5 12 11 12 6 0 9 7 5 15 -3 8 -2 15 2 15 13 0 33 55 39 107 3 29 10 53
14 53 5 0 9 158 9 350 0 195 -4 350 -9 350 -5 0 -12 122 -16 270 -4 148 -11
270 -16 270 -5 0 -9 59 -9 130 0 85 -4 130 -11 130 -7 0 -9 37 -7 110 2 61 0
110 -4 110 -5 0 -8 42 -8 94 0 52 -4 97 -9 100 -4 3 -12 69 -16 146 -4 77 -11
140 -16 140 -5 0 -9 29 -9 65 0 40 -4 65 -11 65 -7 0 -10 20 -7 55 1 30 0 55
-4 55 -5 0 -8 23 -8 50 0 28 -4 50 -9 50 -5 0 -12 36 -16 80 -4 44 -11 80 -16
80 -5 0 -9 18 -9 40 0 23 -5 40 -11 40 -7 0 -9 11 -5 30 3 17 1 30 -4 30 -6 0
-10 14 -10 30 0 17 -4 30 -9 30 -5 0 -12 23 -16 50 -4 28 -11 50 -16 50 -5 0
-9 11 -9 24 0 14 -5 28 -11 31 -6 4 -8 13 -5 21 3 8 1 14 -4 14 -6 0 -10 11
-10 25 0 14 -4 25 -10 25 -5 0 -13 18 -16 40 -4 22 -10 40 -15 40 -4 0 -11 16
-15 35 -3 19 -10 35 -15 35 -5 0 -9 7 -9 15 0 8 -4 15 -9 15 -5 0 -12 14 -16
30 -4 17 -11 30 -15 30 -5 0 -12 16 -16 35 -4 22 -13 37 -26 41 -11 3 -17 12
-14 20 3 8 1 14 -4 14 -6 0 -10 9 -10 20 0 11 -7 23 -15 26 -8 4 -15 12 -15
18 0 7 -11 23 -25 36 -14 13 -25 29 -25 35 0 6 -16 24 -35 39 -19 16 -33 32
-30 36 2 4 -22 33 -55 64 -33 32 -60 63 -60 70 0 14 -73 86 -88 86 -5 0 -34
27 -66 59 -31 33 -65 62 -75 66 -11 3 -22 12 -25 20 -3 8 -11 15 -19 15 -7 0
-24 11 -37 25 -13 14 -29 25 -37 25 -7 0 -13 4 -13 9 0 5 -9 13 -21 16 -12 4
-30 14 -40 23 -10 10 -28 24 -38 34 -10 9 -28 19 -40 23 -12 3 -21 10 -21 15
0 4 -12 11 -27 15 -15 3 -30 10 -33 13 -7 10 -37 28 -110 64 -36 18 -67 35
-70 39 -3 3 -22 9 -42 13 -21 4 -38 11 -38 16 0 5 -25 12 -55 15 -30 4 -55 11
-55 16 0 17 -76 10 -93 -9z"/>
</g>
</svg>
